<svg xmlns="http://www.w3.org/2000/svg" width="256" height="256"><path fill-opacity=".016" d="M0 128.004v128.004l128.25-.254 128.25-.254.254-127.75L257.008 0H0v128.004m.485.496c0 70.4.119 99.053.265 63.672.146-35.38.146-92.98 0-128C.604 29.153.485 58.1.485 128.5" fill="#1976D2" fill-rule="evenodd"/><path fill-opacity=".055" d="M78.633 1.553C68.405 3.585 62.524 5.705 52 11.154 33.638 20.661 19.981 34.589 10.478 53.5.523 73.309.547 73.132.522 127.5c-.02 41.642.179 47.781 1.738 53.853 4.641 18.08 12.567 32.282 25.24 45.232 9.895 10.11 19.877 17.076 31.446 21.944 16.287 6.853 16.026 6.824 65.325 7.222 49.484.4 54.78-.041 69.704-5.807 13.268-5.126 22.661-11.364 33.633-22.336 15.012-15.012 22.746-29.481 27.294-51.063 1.93-9.156 2.098-13.163 2.098-49.929 0-22.693-.414-41.302-.959-43.045-.527-1.689-1.684-6.218-2.572-10.064-5.409-23.443-22.87-47.047-44.3-59.887C200.165 8.225 185.012 2.652 175 1.053c-10.053-1.605-87.801-1.203-96.367.5m86.73 35.732c-5.876 3.34-135.428 102.536-136.508 104.523-1.871 3.442-1.519 8.823.782 11.936 2.351 3.18 25.039 13.462 34.863 15.799 24.481 5.824 45.629-6.024 59.36-33.258l3.134-6.215-14.247-4.481c-7.836-2.464-15.451-4.77-16.923-5.124-3.953-.952-6.193-3.857-5.403-7.005 1.253-4.995 20.879-11.775 38.298-13.231l8.72-.729 6.81-16c3.746-8.8 7.709-16.9 8.808-18 1.414-1.415 3.331-2 6.553-2 3.88 0 4.986.483 7.472 3.266 1.758 1.967 2.918 4.383 2.918 6.078 0 1.547-2.925 9.823-6.5 18.392-3.575 8.569-6.5 16.049-6.5 16.624 0 .574 2.627 4.004 5.838 7.621 9.175 10.336 19.233 30.648 17.126 34.586-2.574 4.81-4.065 4.478-21.06-4.68-12.875-6.938-16.287-8.399-17.009-7.283-1.662 2.567-4.98 14.315-6.135 21.727-3.012 19.31 5.577 38.781 21.556 48.869 5.895 3.721 31.474 14.301 34.565 14.296 1.441-.002 4.005-.849 5.699-1.881 6.508-3.969 6.742.39-4.941-92.139-7.156-56.682-11.122-85.01-12.19-87.074-2.546-4.925-10.345-7.311-15.086-4.617M.458 128c0 23.375.131 32.938.291 21.25.16-11.687.16-30.812 0-42.5C.589 95.063.458 104.625.458 128" fill="#1976D2" fill-rule="evenodd"/><path fill-opacity=".173" d="M84.472 1.004C62.026 4.08 42.746 14.059 26.895 30.802 14.201 44.211 6.107 59.431 2.328 77 .71 84.523.504 90.557.535 129.5l.036 44 2.606 9.55c9.644 35.338 34.502 60.049 70.648 70.232 7.353 2.072 9.603 2.164 53.675 2.19 44.537.027 46.282-.044 54.877-2.233 17.057-4.346 32.835-13.306 45.195-25.667 15.976-15.975 23.652-32.218 28.387-60.072 1.82-10.707.915-76.516-1.193-86.739-8.162-39.585-33.723-67.323-71.394-77.475C173.51.628 173.46.626 132 .402c-22.825-.123-44.213.148-47.528.602m71.291 42.779C50.146 123.869 29.718 139.645 28.449 142.099c-1.972 3.814-1.814 7.791.46 11.519 1.565 2.567 4.437 4.188 16.268 9.178 18.393 7.758 21.606 8.526 33.677 8.041 8.964-.36 10.561-.738 17.399-4.117 8.414-4.159 16.97-11.897 22.18-20.06 5.106-8 8.809-15.823 7.895-16.679-.81-.76-17.095-6.151-28.644-9.483-6.16-1.777-8.318-4.336-6.532-7.745 2.272-4.336 21.219-10.648 34.348-11.442 4.95-.299 9.918-1.115 11.04-1.813 1.241-.772 4.508-7.152 8.342-16.296 3.466-8.264 7.35-16.011 8.631-17.214 2.578-2.422 7.884-2.916 11.356-1.058 3.017 1.615 5.428 6.749 4.642 9.884-.359 1.429-3.321 8.899-6.582 16.599-3.261 7.701-5.929 14.954-5.929 16.12 0 1.165 1.174 3.209 2.608 4.543 6.994 6.5 20.392 30.213 20.392 36.09 0 2.988-1.728 4.848-4.45 4.791-1.127-.024-9.025-3.832-17.55-8.462l-15.5-8.419-1.795 3.979c-5.019 11.123-7.117 29.11-4.645 39.83 2.387 10.353 9.421 20.628 18.873 27.566C161.64 212.374 187.128 223 192.231 223c3.18 0 4.645-.676 7.369-3.4 2.812-2.812 3.4-4.143 3.4-7.7 0-4.047-19.45-161.636-20.588-166.809-.291-1.325-2.033-3.912-3.871-5.75-2.817-2.817-4.061-3.341-7.928-3.341-4.176 0-5.503.696-14.85 7.783M.454 128.5c-.001 20.9.132 29.592.294 19.316.163-10.276.163-27.376.001-38C.587 99.192.454 107.6.454 128.5" fill="#1976D2" fill-rule="evenodd"/><path fill-opacity=".108" d="M83.423 2.125c-.338.546-1.584.9-2.769.785-1.184-.114-2.92.124-3.856.53-.936.405-2.135.47-2.665.142-.529-.327-1.116-.132-1.305.433-.188.565-1.801 1.13-3.583 1.256-1.783.126-3.242.615-3.243 1.086-.001.471-.677.598-1.502.281-.825-.316-1.5-.113-1.5.452 0 .566-.419.769-.931.453-.512-.317-1.218-.111-1.569.457-.351.568-1.057.774-1.569.457C58.419 8.141 58 8.385 58 9s-.45.84-1 .5c-.55-.34-1-.115-1 .5s-.45.84-1 .5c-.55-.34-1-.115-1 .5s-.45.84-1 .5c-.55-.34-1-.066-1 .608 0 .674-.273.952-.606.619-.334-.334-1.527.251-2.652 1.299-1.125 1.047-2.427 1.669-2.893 1.38-.467-.288-.849-.047-.849.535 0 .582-.627 1.059-1.393 1.059s-1.677.739-2.024 1.643c-.346.904-.917 1.357-1.267 1.006-.35-.35-1.265.261-2.033 1.357-.768 1.097-1.785 1.994-2.26 1.994C34.897 23 23 34.897 23 36.023c0 .475-.897 1.492-1.994 2.26-1.096.768-1.707 1.683-1.357 2.033.351.35-.1.92-1 1.265-.901.346-1.387 1.035-1.08 1.531.307.496-.143 1.171-1 1.5-.857.329-1.351.932-1.098 1.341.253.409-.398 1.664-1.445 2.789-1.048 1.125-1.633 2.318-1.299 2.652.333.333.055.606-.619.606s-.948.45-.608 1c.34.55.115 1-.5 1s-.84.45-.5 1c.34.55.237 1-.228 1-.466 0-.92.972-1.009 2.16-.09 1.188-.523 2.426-.963 2.75-.44.325-.954 1.49-1.142 2.59-.187 1.1-.725 2.142-1.193 2.315-.469.173-.622.915-.341 1.648.282.734.051 1.62-.512 1.968-.564.348-.771 1.294-.461 2.101.309.807.035 1.468-.611 1.468-.703 0-.93.77-.567 1.916.335 1.054.182 2.179-.338 2.501-.521.322-.711 1.487-.423 2.589.288 1.103.056 2.569-.517 3.259-1.439 1.734-1.439 87.736 0 89.47.573.69.805 2.156.517 3.259-.288 1.102-.077 2.28.469 2.618.546.337.777 1.441.512 2.453-.264 1.011-.069 1.976.434 2.144.504.168 1.018 1.764 1.144 3.546.126 1.783.615 3.242 1.086 3.243.471.001.609.648.306 1.437-.303.79-.106 1.584.438 1.765.543.181 1.064 1.335 1.156 2.565.093 1.229.549 2.235 1.015 2.235.465 0 .568.45.228 1-.34.55-.115 1 .5 1s.84.45.5 1c-.34.55-.115 1 .5 1s.84.45.5 1c-.34.55-.115 1 .5 1s.84.45.5 1c-.34.55-.066 1 .608 1 .674 0 .952.273.619.606-.334.334.251 1.527 1.299 2.652 1.047 1.125 1.698 2.38 1.445 2.789-.253.409.213 1.001 1.035 1.317.822.315 1.494 1.154 1.494 1.864 0 .71.944 1.88 2.097 2.601 1.154.72 1.905 1.502 1.67 1.737-.532.532 13.288 14.434 14.349 14.434.424 0 1.399.897 2.167 1.994.768 1.096 1.683 1.707 2.033 1.357.35-.351.92.1 1.265 1 .346.901.963 1.431 1.372 1.178.409-.253 1.6.337 2.646 1.312 1.045.974 2.141 1.746 2.433 1.715 1.305-.137 8.968 3.84 8.968 4.655 0 .499.45.629 1 .289s1-.156 1 .41c0 .565.675.768 1.5.452.825-.317 1.5-.051 1.5.59s.419.907.931.591c.512-.317 1.218-.111 1.569.457.351.568 1.026.793 1.5.5.474-.293 1.132-.095 1.463.44.331.535 1.216.737 1.968.448.752-.288 1.652-.063 2 .5.348.564 1.248.789 2 .5.752-.288 1.626-.104 1.944.41.317.513 1.713.717 3.101.451 1.388-.265 2.524-.068 2.524.437 0 1.287 5.686 1.481 45.5 1.553 34.553.062 44.285-.293 47.793-1.744.986-.408 2.07-.465 2.408-.127.338.338 1.213.118 1.944-.489.731-.606 2.01-.842 2.842-.522.832.319 1.513.096 1.513-.495 0-.592.661-.822 1.468-.513.807.31 1.753.103 2.101-.461.348-.563 1.234-.794 1.968-.512.733.281 1.482.067 1.663-.477.181-.543 1.335-1.064 2.565-1.156 1.229-.093 2.235-.474 2.235-.847 0-.711 4.953-2.344 6.25-2.06.412.09.75-.214.75-.675 0-.815 3.968-3.007 5.023-2.776.288.063 1.611-.897 2.939-2.135 1.328-1.237 2.957-2.25 3.62-2.25.662 0 1.465-.679 1.783-1.509.319-.83.969-1.393 1.446-1.25.477.142 2.105-1.205 3.619-2.994 1.514-1.789 3.096-3.04 3.516-2.781.942.583 5.286-3.901 4.521-4.666-.303-.303.93-1.805 2.741-3.337 1.81-1.532 3.175-3.175 3.033-3.652-.143-.477.42-1.127 1.25-1.446.83-.318 1.509-1.121 1.509-1.783 0-.663.813-2.077 1.806-3.143.993-1.067 1.89-2.389 1.992-2.939.102-.55.827-1.749 1.612-2.665.784-.917 1.163-1.929.841-2.25-.321-.322-.033-.585.641-.585s.948-.45.608-1c-.34-.55-.237-1 .228-1 .466 0 .92-.972 1.009-2.16.09-1.188.523-2.426.963-2.75.44-.325.954-1.49 1.142-2.59.187-1.1.725-2.142 1.193-2.315.469-.173.605-.96.302-1.75-.303-.789-.095-1.435.462-1.435.558 0 .778-.9.491-2-.288-1.1-.063-2 .5-2 .562 0 .787-.9.5-2-.288-1.1-.035-2 .562-2 .597 0 .826-.675.51-1.5-.317-.825-.236-2.287.18-3.25 1.362-3.153 1.594-8.308 2.058-45.75.335-27.045.145-37.589-.708-39.19-.641-1.205-.894-3.55-.562-5.211.34-1.701.146-3.305-.444-3.669-.576-.357-.778-1.724-.448-3.039.369-1.47.163-2.391-.536-2.391-.643 0-.909-.867-.612-2 .287-1.1.095-2-.427-2-.523 0-.859-.562-.746-1.25.112-.687-.286-2.43-.884-3.873-.598-1.443-1.232-3.468-1.41-4.5-.178-1.032-.548-2.102-.823-2.377-1.073-1.073-6.471-12.499-6-12.7.275-.118-.4-.894-1.5-1.725-1.1-.831-1.576-1.526-1.059-1.543.518-.018.068-.693-1-1.5-1.067-.808-1.554-1.483-1.08-1.5.473-.018-.202-.917-1.5-1.999-1.299-1.081-2.103-1.981-1.788-2 .851-.049-14.434-15.405-15.404-15.474-.456-.032-1.401-.84-2.098-1.793-.698-.954-1.551-1.452-1.896-1.107-.346.345-.911-.11-1.256-1.01-.346-.901-.963-1.431-1.372-1.178-.409.253-1.712-.442-2.896-1.545-1.183-1.102-2.151-1.752-2.151-1.445 0 .609-8.184-3.361-9-4.365-.275-.339-1.4-.77-2.5-.958-1.1-.187-2.142-.725-2.315-1.193-.173-.469-.96-.605-1.75-.302-.789.303-1.435.067-1.435-.525 0-.591-.675-.816-1.5-.5-.825.317-1.5.092-1.5-.5 0-.591-.629-.834-1.399-.538-.769.295-1.67.098-2.001-.438-.331-.536-1.502-.739-2.601-.451-1.132.296-1.999.03-1.999-.613 0-.699-.921-.905-2.391-.536-1.315.33-2.674.141-3.021-.419C172.734.76 84.277.742 83.423 2.125m85.067 32.891c-.346.559-1.011.78-1.478.491-.468-.289-1.562.186-2.431 1.055-.87.87-1.596 1.211-1.614.759-.019-.451-.919.241-2 1.54-1.082 1.298-1.982 1.973-2 1.5-.019-.474-.919.201-2 1.5-1.082 1.298-1.982 1.973-2 1.5-.019-.474-.863.132-1.876 1.346-1.014 1.215-2.092 1.958-2.398 1.653-.305-.305-1.144.389-1.864 1.543-.721 1.153-1.891 2.097-2.601 2.097s-1.55.675-1.866 1.5c-.317.825-1.217 1.5-2 1.5-.784 0-1.684.675-2 1.5-.317.825-1.187 1.5-1.934 1.5-.747 0-1.846.913-2.443 2.028s-1.482 1.783-1.967 1.483c-.485-.299-1.587.463-2.45 1.695-.862 1.231-1.583 1.801-1.601 1.267-.019-.535-.919.089-2 1.388-1.082 1.298-1.982 1.973-2 1.5-.019-.474-.863.132-1.876 1.346-1.014 1.215-2.092 1.958-2.398 1.653-.305-.305-1.144.389-1.864 1.543-.721 1.153-1.891 2.097-2.601 2.097s-1.55.675-1.866 1.5c-.317.825-1.187 1.5-1.934 1.5-.747 0-1.846.913-2.443 2.028s-1.49 1.778-1.985 1.472c-.495-.306-1.395.369-2 1.5s-1.497 1.811-1.982 1.511c-.485-.299-1.587.463-2.45 1.695-.862 1.231-1.583 1.801-1.601 1.267-.019-.535-.919.089-2 1.388-1.082 1.298-1.982 1.973-2 1.5-.019-.474-.863.132-1.876 1.346-1.014 1.215-2.092 1.958-2.398 1.653-.305-.305-1.144.389-1.864 1.543C90.108 93.056 88.938 94 88.228 94s-1.55.675-1.866 1.5c-.317.825-1.187 1.5-1.934 1.5-.747 0-1.846.913-2.443 2.028s-1.482 1.783-1.967 1.483c-.485-.299-1.587.463-2.45 1.695-.862 1.231-1.583 1.801-1.601 1.267-.019-.535-.919.089-2 1.388-1.082 1.298-1.982 1.973-2 1.5-.019-.474-.863.132-1.876 1.346-1.014 1.215-2.092 1.958-2.398 1.653-.305-.305-1.144.389-1.864 1.543-.721 1.153-1.891 2.097-2.601 2.097s-1.55.675-1.866 1.5c-.317.825-1.217 1.5-2 1.5-.784 0-1.684.675-2 1.5-.317.825-1.187 1.5-1.934 1.5-.747 0-1.846.913-2.443 2.028s-1.482 1.783-1.967 1.483c-.485-.299-1.587.463-2.45 1.695-.862 1.231-1.583 1.801-1.601 1.267-.019-.535-.919.089-2 1.388-1.082 1.298-1.982 1.973-2 1.5-.019-.474-.863.132-1.876 1.346-1.014 1.215-2.092 1.958-2.398 1.653-.305-.305-1.144.389-1.864 1.543-.721 1.153-1.696 2.097-2.168 2.097-1.157 0-7.129 6.305-6.868 7.25.114.412-.166.75-.622.75-1.153 0-.701 8.142.586 10.547 1.318 2.461 5.238 6.083 5.258 4.858.009-.498.346-.387.75.245.404.633 1.635 1.308 2.735 1.5 1.1.193 2.265.71 2.59 1.15.324.44 1.562.873 2.75.963 1.188.089 2.16.543 2.16 1.009 0 .465.412.592.915.281.503-.311 1.072-.093 1.264.485.193.578 1.356 1.127 2.586 1.219 1.229.093 2.235.549 2.235 1.015 0 .465.412.592.915.281.503-.311 1.072-.093 1.264.485.193.578 1.356 1.127 2.586 1.219 1.229.093 2.235.571 2.235 1.063s.675.635 1.5.318c.825-.316 1.5-.091 1.5.5 0 .592.661.822 1.468.513.807-.31 1.737-.128 2.066.404.328.532 1.805.968 3.282.97 1.476.002 4.832.269 7.458.592 2.794.344 5.304.148 6.052-.473.703-.583 2.267-.802 3.476-.486 1.344.352 2.198.118 2.198-.6 0-.647.45-.898 1-.558.55.34 1.563.267 2.25-.162.688-.429 2.089-.911 3.115-1.07 2.448-.381 7.635-3.467 7.635-4.543 0-.463.453-.563 1.007-.221.554.343 1.277-.081 1.607-.941.33-.859 1.097-1.563 1.705-1.563 1.497 0 9.681-8.117 9.681-9.601 0-.652.675-1.444 1.5-1.761.825-.316 1.5-1.264 1.5-2.107 0-.842.45-1.531 1-1.531s1-.675 1-1.5.477-1.5 1.059-1.5.781-.45.441-1-.176-1 .364-1c.541 0 2.083-2.315 3.428-5.145 2.507-5.274 2.544-9.39.077-8.443-.753.289-1.369.041-1.369-.55 0-.592-.675-.817-1.5-.5-.825.316-1.5.091-1.5-.5 0-.592-.675-.817-1.5-.5-.825.316-1.5.091-1.5-.5 0-.592-.675-.817-1.5-.5-.825.316-1.5.091-1.5-.5 0-.592-.631-.834-1.402-.538-.771.296-1.709.232-2.084-.143-.374-.375-.981-.719-1.347-.765-.367-.046-1.942-.612-3.501-1.257-1.559-.645-3.246-.919-3.75-.607-.504.311-.916.041-.916-.6s-.675-.907-1.5-.59c-.825.316-1.5.106-1.5-.467 0-.573-.788-.883-1.75-.69-3.508.706-7.231-5.565-4.705-7.924.683-.639 1.515-.888 1.848-.554.334.333.607.177.607-.348 0-.524.972-1.027 2.16-1.116 1.188-.09 2.531-.748 2.985-1.463.453-.715.831-.907.84-.428.008.48.69.313 1.515-.372s1.5-.875 1.5-.422c0 .452.505.317 1.122-.3.617-.617 1.742-.884 2.5-.593.758.291 1.378.045 1.378-.547 0-.591.629-.834 1.399-.538.769.295 1.684.075 2.032-.488.348-.564 1.248-.789 2-.5.752.288 1.626.104 1.944-.41.317-.513 1.66-.727 2.984-.474s2.7-.014 3.058-.593c.412-.667 3.023-.832 7.117-.45 4.708.44 6.466.277 6.466-.599 0-.662.431-.938.957-.612 1.101.68 4.284-4.899 3.336-5.847-.344-.345-.075-.627.599-.627.674 0 .972-.412.661-.915-.311-.503-.093-1.072.485-1.264.578-.193 1.127-1.356 1.219-2.586.093-1.229.549-2.235 1.015-2.235.465 0 .568-.45.228-1-.34-.55-.093-1 .548-1s.907-.675.59-1.5c-.316-.825-.113-1.5.452-1.5.566 0 .774-.412.463-.915-.311-.503-.093-1.072.485-1.264.578-.193 1.127-1.356 1.219-2.586.093-1.229.549-2.235 1.015-2.235.465 0 .592-.412.281-.915-.311-.503-.093-1.072.485-1.264.578-.193 1.127-1.356 1.219-2.586.093-1.229.438-2.235.767-2.235s1.471-.787 2.537-1.75c2.692-2.43 7.439-2.202 10.429.5 1.369 1.237 2.858 2.25 3.309 2.25.45 0 .593.366.316.814-.277.448-.613 2.923-.746 5.5-.134 2.577-.635 4.686-1.115 4.686s-.594.45-.254 1c.34.55.093 1-.548 1s-.907.675-.59 1.5c.316.825.113 1.5-.452 1.5-.566 0-.774.412-.463.915.311.503.093 1.072-.485 1.264-.578.193-1.127 1.356-1.219 2.586-.093 1.229-.549 2.235-1.015 2.235-.465 0-.592.412-.281.915.311.503.154 1.065-.349 1.25-.503.184-1.069 1.235-1.256 2.335-.188 1.1-.93 2.621-1.65 3.379-.719.758-1.07 1.996-.781 2.75.289.754.152 1.371-.305 1.371-1.528 0-.677 5.478 1.102 7.102.966.88 1.524 1.833 1.24 2.116-.283.284 1.042 1.883 2.946 3.555 1.904 1.671 3.204 3.295 2.89 3.609-.313.314.167.854 1.067 1.199.901.346 1.387 1.035 1.08 1.531-.307.496.143 1.171 1 1.5.857.329 1.351.932 1.098 1.341-.253.409.398 1.664 1.445 2.789 1.048 1.125 1.633 2.318 1.299 2.652-.333.333-.055.606.619.606s.948.45.608 1c-.34.55-.115 1 .5 1s.84.45.5 1c-.34.55-.237 1 .228 1 .466 0 .922 1.006 1.015 2.235.092 1.23.641 2.393 1.219 2.586.578.192.796.761.485 1.264-.311.503-.103.915.463.915.565 0 .768.675.452 1.5-.317.825-.128 1.5.42 1.5 1.455 0 .959 3.153-.782 4.977-1.647 1.724-5 2.155-5 .642 0-.524-.263-.69-.583-.369-.321.321-1.463-.296-2.537-1.37-1.074-1.074-2.387-1.685-2.916-1.357-.53.327-.964.092-.964-.523s-.45-.84-1-.5c-.55.34-1 .244-1-.214 0-.994-7.045-4.894-8.196-4.536-.442.137-.804-.227-.804-.809 0-.582-.45-.781-1-.441s-1 .115-1-.5-.45-.84-1-.5c-.55.34-1 .115-1-.5s-.45-.84-1-.5c-.55.34-1 .115-1-.5s-.45-.84-1-.5c-.55.34-1 .115-1-.5s-.45-.84-1-.5c-.55.34-1 .115-1-.5s-.45-.84-1-.5c-.55.34-1 .124-1-.48 0-.707-.498-.639-1.395.191-.767.709-1.191 1.627-.941 2.039.25.412-.071.75-.712.75s-.907.675-.59 1.5c.316.825.091 1.5-.5 1.5-.592 0-.817.675-.5 1.5.316.825.091 1.5-.5 1.5-.592 0-.817.675-.5 1.5.316.825.091 1.5-.5 1.5-.592 0-.822.661-.513 1.468.31.807.094 1.758-.48 2.113s-.821 1.493-.55 2.531c.271 1.037.097 2.131-.387 2.43-.484.299-.886 2.212-.895 4.251a749.787 749.787 0 01-.069 7.207c-.107 6.811.241 10.011 1.147 10.571.505.312.659.986.342 1.498-.316.512-.224 1.494.205 2.181.429.688.919 2.15 1.088 3.25.169 1.1.748 2.151 1.285 2.335.538.185.723.747.412 1.25s-.062.915.553.915.84.45.5 1c-.34.55-.115 1 .5 1s.857.422.538.939c-.319.516.217 1.402 1.191 1.969.974.567 1.422 1.045.996 1.062-1.002.039 11.233 12.03 12.274 12.03.433 0 1.057.704 1.387 1.563.33.86 1.053 1.284 1.607.941.554-.342 1.007-.119 1.007.496s.45.84 1 .5c.55-.34 1-.115 1 .5s.45.84 1 .5c.55-.34 1-.115 1 .5s.412.864.915.553c.503-.311 1.072-.093 1.264.485.193.578 1.356 1.127 2.586 1.219 1.229.093 2.235.549 2.235 1.015 0 .465.412.592.915.281.503-.311 1.072-.093 1.264.485.193.578 1.356 1.127 2.586 1.219 1.229.093 2.235.549 2.235 1.015 0 .465.412.592.915.281.503-.311 1.065-.154 1.25.349.184.503 1.235 1.069 2.335 1.256 1.1.188 2.245.668 2.543 1.067.299.398 1.424.861 2.5 1.029 1.077.167 2.541.668 3.255 1.114.714.445 2.064.476 3 .07.936-.407 2.332-.867 3.102-1.023.77-.155 1.775-.874 2.235-1.599.459-.724.841-.923.85-.444.008.48.685.317 1.504-.363.819-.68 1.266-1.596.994-2.037-.273-.441-.018-.96.565-1.155.584-.194 1.193-1.02 1.355-1.835.162-.815.648-2.3 1.079-3.299.445-1.034.33-2.271-.267-2.868-.578-.578-.813-2.516-.523-4.306.291-1.79.058-3.545-.516-3.9-.58-.358-.802-2.138-.5-4 .302-1.862.08-3.642-.5-4-.58-.358-.802-2.138-.5-4 .302-1.862.08-3.642-.5-4-.58-.358-.802-2.138-.5-4 .302-1.862.08-3.642-.5-4-.58-.358-.802-2.138-.5-4 .302-1.862.08-3.642-.5-4-.58-.358-.802-2.138-.5-4 .302-1.862.08-3.642-.5-4-.591-.365-.799-2.158-.479-4.127.339-2.09.152-3.482-.466-3.482-.567 0-1.023-1.687-1.014-3.75.009-2.062-.261-5.775-.6-8.25-.339-2.475-.619-5.937-.622-7.694-.003-1.757-.467-3.479-1.031-3.828-.582-.36-.757-2.063-.405-3.941.361-1.925.179-3.581-.436-3.961-.592-.366-.797-1.956-.466-3.612.327-1.634.087-3.568-.536-4.318-.632-.762-.863-2.688-.524-4.382.345-1.726.147-3.304-.464-3.681-.602-.373-.81-1.949-.476-3.619.327-1.634.087-3.568-.536-4.318-.632-.762-.863-2.688-.524-4.382.337-1.683.146-3.305-.43-3.661-.57-.352-.791-2.147-.491-3.994.302-1.862.08-3.642-.5-4-.58-.358-.802-2.138-.5-4 .302-1.862.08-3.642-.5-4-.58-.358-.802-2.138-.5-4 .302-1.862.08-3.642-.5-4-.58-.358-.802-2.138-.5-4 .31-1.912.081-3.641-.533-4.021-.612-.378-.822-1.943-.486-3.624.33-1.647.086-3.569-.55-4.335-.628-.756-.858-2.113-.512-3.015.346-.902.073-2.309-.606-3.127-.678-.818-.841-1.494-.361-1.502.479-.009.422-.346-.128-.75s-1.45-1.557-2-2.562-1.354-1.777-1.786-1.715c-.432.063-1.457-.559-2.279-1.38-.821-.821-2.155-1.239-2.964-.929-.809.311-1.471.067-1.471-.542 0-1.389-2.665-1.457-3.51-.091" fill="#1976D2" fill-rule="evenodd"/></svg>