<svg width="257" height="76" viewBox="0 0 257 76" fill="none" xmlns="http://www.w3.org/2000/svg">
<g clip-path="url(#clip0)">
<path d="M66.1226 0.982666H47.912C32.496 0.982666 20 13.4787 20 28.8946V47.1053C20 62.5212 32.496 75.0172 47.912 75.0172H66.1226C81.5385 75.0172 94.0345 62.5212 94.0345 47.1053V28.8946C94.0395 13.4787 81.5385 0.982666 66.1226 0.982666ZM78.4834 63.4628C77.7571 65.1907 75.7688 66.002 74.0409 65.2758C74.0409 65.2758 69.5183 63.3726 67.6051 62.5713C67.6051 62.5713 53.7768 57.4176 61.0591 40.3839C63.6033 41.6711 67.8455 43.8598 69.7687 45.0418C69.8489 45.0969 69.934 45.1419 70.0241 45.182C70.7954 45.5076 71.6819 45.1419 72.0075 44.3706C72.1677 43.995 72.1577 43.5893 72.0225 43.2337C69.939 37.4891 67.2495 34.4189 65.8872 33.1468C65.8722 33.1317 65.8672 33.1217 65.8521 33.1067C64.9957 32.3003 65.4464 31.3838 65.4464 31.3838H65.4364L68.6368 23.771C68.6368 23.771 68.7871 23.4154 68.8522 23.2551C69.4582 21.8177 68.7821 20.1649 67.3446 19.5639C67.3196 19.5539 67.2946 19.5439 67.2645 19.5339C67.2395 19.5239 67.2144 19.5088 67.1894 19.4988C65.752 18.8928 64.0992 19.5689 63.4982 21.0063C63.4331 21.1616 63.2828 21.5222 63.2828 21.5222L60.0824 29.135L60.0774 29.13C60.0774 29.13 59.7368 30.0916 58.5599 30.0466C58.5398 30.0466 58.5248 30.0466 58.5048 30.0466C56.6416 29.9614 52.5698 30.1868 47.0054 32.716C46.6548 32.8663 46.3593 33.1418 46.2041 33.5224C45.8785 34.2937 46.2441 35.1802 47.0154 35.5057C47.1056 35.5458 47.2008 35.5708 47.2959 35.5909C49.4846 36.1368 54.0172 37.6443 56.7168 38.5559C49.6348 55.6747 36.2824 49.3991 36.2824 49.3991C34.3742 48.5927 29.8466 46.6895 29.8466 46.6895C28.1187 45.9633 27.3073 43.975 28.0335 42.2471C28.2439 41.7462 28.5694 41.3355 28.9551 41.005V40.99L67.2645 11.911L67.2695 11.9211C68.1961 11.265 69.4231 11.0796 70.545 11.5504C70.5701 11.5605 70.5951 11.5805 70.6201 11.5905C70.6452 11.6005 70.6752 11.6055 70.7003 11.6156C71.8222 12.0863 72.5484 13.093 72.7287 14.2149H72.7387L78.7538 61.9302L78.7438 61.9402C78.7638 62.441 78.6937 62.9619 78.4834 63.4628Z" fill="#FEBD11"/>
<path d="M121.305 59.6614H121.16L118.25 59.441L113.663 59.5862C112.596 59.6363 111.89 59.441 111.549 59.0053C111.208 58.5695 111.038 57.4777 111.038 55.7298C111.038 54.663 111.113 52.8399 111.258 50.2706C111.309 49.2989 111.334 48.3273 111.334 47.3557C111.334 47.0151 111.309 46.1887 111.258 44.8815C111.208 43.5693 111.183 42.7229 111.183 42.3322V40.5142C111.278 39.3021 111.329 38.1352 111.329 37.0183L111.253 29.8813C111.349 27.7477 111.449 25.2685 111.544 22.4538L111.469 14.3001C111.469 12.7475 111.689 11.6907 112.125 11.1347C112.561 10.5788 113.387 10.2983 114.599 10.2983C116.297 10.2983 117.85 10.3484 119.257 10.4436C120.033 10.4937 120.639 10.5187 121.08 10.5187L128.432 10.4436C132.85 10.3935 136.902 11.5855 140.593 14.0096C142.291 15.1265 143.653 16.7993 144.67 19.033C145.691 21.2668 146.197 23.6708 146.197 26.2402C146.197 29.7861 145.276 33.0867 143.433 36.1418C143.237 36.4824 141.76 38.2303 138.99 41.3856C138.599 41.8214 138.409 42.3573 138.409 42.9883C138.409 43.6695 138.725 44.2504 139.356 44.7363C140.908 45.9483 142.291 46.7497 143.508 47.1403C145.155 47.6762 145.982 48.4275 145.982 49.3991C145.982 54.9334 145.837 57.9184 145.546 58.3542C144.915 59.2757 143.848 59.7365 142.341 59.7365C140.883 59.7365 139.476 59.1806 138.119 58.0637L137.538 57.6279C135.885 56.4159 134.578 55.2489 133.606 54.1321C132.489 52.92 131.763 52.2138 131.422 52.0185C130.841 51.6329 129.554 50.7313 127.566 49.324C126.885 48.8382 126.133 48.5978 125.307 48.5978C124.095 48.5978 123.294 49.2038 122.903 50.4158C122.903 50.4659 122.878 51.1921 122.828 52.5995L122.753 55.0737C122.753 55.4142 122.828 55.9 122.973 56.5311C123.118 57.1622 123.194 57.6229 123.194 57.9134C123.199 59.0804 122.567 59.6614 121.305 59.6614ZM122.833 25.1483L122.908 27.7677C122.908 28.2035 122.833 29.2252 122.688 30.8279V31.484C122.688 34.0082 122.858 35.8263 123.199 36.9432C123.489 37.5742 124.24 37.8897 125.457 37.8897C127.786 37.8897 129.91 36.7378 131.828 34.4289C133.746 32.1251 134.703 29.8312 134.703 27.5474C134.703 25.7043 134.132 24.2318 132.99 23.1399C131.848 22.0481 129.75 21.5022 126.689 21.5022C125.187 21.5022 124.15 21.7676 123.594 22.3035C123.038 22.8444 122.783 23.791 122.833 25.1483Z" fill="#FEBD11"/>
<path d="M170.668 10.659L171.325 10.5839L176.348 10.5088C178.191 10.4587 179.113 11.7008 179.113 14.22C179.113 14.7059 179.088 15.1416 179.038 15.5322C178.892 16.7944 178.817 17.5957 178.817 17.9363L178.892 20.7761C178.892 21.0215 178.857 21.3821 178.782 21.8679C178.707 22.3537 178.672 22.7193 178.672 22.9597C178.672 22.8145 178.722 23.2252 178.817 24.1968C178.912 25.1685 178.962 25.7244 178.962 25.8696L178.892 33.6577C178.892 34.6294 178.867 35.8414 178.817 37.2989C178.767 37.4441 178.742 37.5893 178.742 37.7346C178.742 37.7847 178.767 37.9299 178.817 38.1703C179.203 40.2588 179.253 44.0953 178.962 49.6747L178.817 52.5144C178.767 53.0003 178.792 53.7065 178.892 54.628C178.987 55.6948 179.038 56.426 179.038 56.8117C179.038 58.5596 178.527 59.4311 177.51 59.4311C171.926 59.4311 168.895 59.356 168.41 59.2107C167.438 58.9202 166.952 58.2391 166.952 57.1723C166.952 57.1222 166.987 56.7866 167.062 56.1506C167.137 55.5195 167.173 54.9135 167.173 54.3325L167.318 45.6679L167.173 39.0418L167.248 32.636C167.248 31.9098 167.198 30.818 167.102 29.3605C167.002 27.9031 166.957 26.8363 166.957 26.1551C166.957 25.6693 167.002 24.4072 167.102 22.3687C167.198 20.3303 167.248 19.2886 167.248 19.2385C167.248 18.1216 167.127 16.7142 166.882 15.0164C166.782 14.3352 166.737 13.8995 166.737 13.7042C166.737 12.9779 167.052 12.2617 167.683 11.5556C168.314 10.8544 168.971 10.4988 169.652 10.4988C169.747 10.4988 169.917 10.5238 170.163 10.5739C170.403 10.639 170.573 10.659 170.668 10.659Z" fill="#FEBD11"/>
<path d="M203.364 59.2958H200.96C199.457 59.2958 198.435 59.0304 197.899 58.4945C197.364 57.9636 197.098 57.4026 197.098 56.8217C197.098 56.5812 197.208 56.1405 197.424 55.5094C197.644 54.8784 197.749 54.4677 197.749 54.2724C197.945 52.3792 198.135 51.0469 198.33 50.2656L198.621 49.1738C198.621 49.1237 198.741 48.2022 198.986 46.4091C199.132 45.1971 199.422 43.96 199.858 42.6979C200.148 41.8715 200.414 40.6344 200.659 38.9867C200.704 38.6962 200.925 37.6995 201.315 36.0016C201.41 35.5659 201.606 34.6894 201.896 33.3822C201.946 33.237 202.237 32.2153 202.773 30.3221C203.208 28.7695 203.429 27.8479 203.429 27.5574L204.085 24.1367L205.177 20.1299C205.322 19.6441 205.492 18.6975 205.688 17.2902C206.078 14.6708 206.599 12.9228 207.255 12.0463C207.911 11.1749 209.063 10.6891 210.716 10.5889C212.805 10.4937 215.474 10.4436 218.725 10.4436C218.775 10.4436 219.331 10.4937 220.397 10.5889L222.215 10.4436C222.796 10.3936 223.488 10.5037 224.289 10.7692C225.09 11.0346 225.611 11.3151 225.857 11.6056C226.538 12.3318 227.189 13.9596 227.82 16.4838C227.82 16.629 228.205 17.9413 228.987 20.4154C229.082 20.7059 229.352 21.8729 229.788 23.9113C229.833 24.2018 230.174 25.3687 230.81 27.4072C230.955 27.893 231.15 28.8897 231.391 30.3922C231.391 30.6376 231.536 31.3638 231.827 32.5759C231.922 33.0617 232.142 34.444 232.483 36.7279C232.578 37.0183 232.773 37.6494 233.064 38.621C233.304 39.3473 233.62 40.7096 234.01 42.6979C234.06 43.0886 234.276 44.0802 234.666 45.6829C234.812 46.314 234.932 46.945 235.032 47.5761C235.032 47.6763 235.297 48.7881 235.833 50.9267C235.833 50.9768 236.004 51.8483 236.344 53.5461C236.389 53.5962 236.565 54.2273 236.855 55.4393C236.95 55.83 237 56.1656 237 56.461C237 57.9686 236.394 58.9352 235.182 59.376C234.792 59.4711 233.409 59.5212 231.03 59.5212C228.746 59.5212 227.414 59.4461 227.023 59.3008C226.488 59.1055 226.027 58.6948 225.641 58.0637L224.038 53.2607C223.793 52.5344 223.312 52.0737 222.581 51.8783C221.855 51.683 220.297 51.5878 217.923 51.5878C214.863 51.5878 212.719 51.8683 211.477 52.4243C210.24 52.9852 209.474 54.0169 209.183 55.5195C208.698 58.239 207.991 59.5462 207.07 59.4511C206.198 59.3459 204.961 59.2958 203.364 59.2958ZM213.701 32.4306L212.9 35.9966C212.8 36.4324 212.754 37.0183 212.754 37.7446C212.754 39.7329 213.967 40.7296 216.396 40.7296C217.998 40.7296 219.09 40.6344 219.671 40.4391C220.838 40.0985 221.419 39.3473 221.419 38.1803C221.419 37.5993 220.958 35.1202 220.037 30.7528C219.551 28.4239 218.97 26.5307 218.289 25.0733C217.948 24.347 217.512 23.9814 216.977 23.9814C215.765 23.9814 214.863 25.6793 214.282 29.08L213.701 32.4306Z" fill="#FEBD11"/>
</g>
<defs>
<clipPath id="clip0">
<rect width="257" height="74.0345" fill="white" transform="translate(0 0.982666)"/>
</clipPath>
</defs>
</svg>
