<svg width="39" height="39" viewBox="0 0 39 39" fill="none" xmlns="http://www.w3.org/2000/svg">
<g clip-path="url(#clip0)">
<path d="M23.8052 0H14.4062C6.44957 0 0 6.44957 0 14.4062V23.8052C0 31.7618 6.44957 38.2114 14.4062 38.2114H23.8052C31.7618 38.2114 38.2114 31.7618 38.2114 23.8052V14.4062C38.214 6.44957 31.7618 0 23.8052 0ZM30.185 32.2478C29.8102 33.1396 28.7839 33.5584 27.8921 33.1836C27.8921 33.1836 25.5579 32.2013 24.5704 31.7877C24.5704 31.7877 17.4332 29.1277 21.1918 20.3362C22.505 21.0005 24.6945 22.1301 25.6871 22.7402C25.7285 22.7686 25.7724 22.7919 25.8189 22.8126C26.217 22.9806 26.6746 22.7919 26.8426 22.3938C26.9253 22.1999 26.9201 21.9906 26.8504 21.807C25.775 18.842 24.3869 17.2574 23.6837 16.6008C23.676 16.5931 23.6734 16.5879 23.6656 16.5802C23.2236 16.164 23.4563 15.6909 23.4563 15.6909H23.4511L25.1029 11.7617C25.1029 11.7617 25.1804 11.5782 25.2141 11.4955C25.5268 10.7536 25.1779 9.90053 24.436 9.59034C24.423 9.58517 24.4101 9.58 24.3946 9.57483C24.3817 9.56966 24.3688 9.5619 24.3558 9.55673C23.6139 9.24395 22.7609 9.59292 22.4507 10.3348C22.4171 10.4149 22.3395 10.6011 22.3395 10.6011L20.6877 14.5303L20.6851 14.5277C20.6851 14.5277 20.5094 15.024 19.9019 15.0007C19.8915 15.0007 19.8838 15.0007 19.8734 15.0007C18.9118 14.9568 16.8102 15.0731 13.9383 16.3785C13.7573 16.4561 13.6048 16.5983 13.5247 16.7947C13.3567 17.1928 13.5454 17.6504 13.9435 17.8184C13.99 17.8391 14.0391 17.852 14.0882 17.8623C15.2179 18.1441 17.5573 18.9222 18.9506 19.3926C15.2954 28.2282 8.40382 24.9892 8.40382 24.9892C7.41894 24.573 5.0821 23.5907 5.0821 23.5907C4.19028 23.2158 3.77151 22.1896 4.14633 21.2978C4.2549 21.0393 4.42293 20.8273 4.62197 20.6567V20.6489L24.3946 5.64046L24.3972 5.64563C24.8754 5.307 25.5087 5.21135 26.0878 5.45434C26.1007 5.45951 26.1136 5.46985 26.1266 5.47502C26.1395 5.48019 26.155 5.48278 26.1679 5.48795C26.747 5.73094 27.1218 6.25052 27.2148 6.82956H27.22L30.3246 31.4568L30.3194 31.462C30.3298 31.7205 30.2936 31.9893 30.185 32.2478Z" fill="#FEBD11"/>
</g>
<defs>
<clipPath id="clip0">
<rect width="38.2114" height="38.2114" fill="white"/>
</clipPath>
</defs>
</svg>
